<?xml version="1.0" encoding="UTF-8" standalone="no"?>
<svg
   xmlns:dc="http://purl.org/dc/elements/1.1/"
   xmlns:cc="http://creativecommons.org/ns#"
   xmlns:rdf="http://www.w3.org/1999/02/22-rdf-syntax-ns#"
   xmlns:svg="http://www.w3.org/2000/svg"
   xmlns="http://www.w3.org/2000/svg"
   xmlns:sodipodi="http://sodipodi.sourceforge.net/DTD/sodipodi-0.dtd"
   xmlns:inkscape="http://www.inkscape.org/namespaces/inkscape"
   version="1.1"
   id="svg2"
   xml:space="preserve"
   width="331.75012"
   height="162.66875"
   viewBox="0 0 331.75013 162.66875"
   sodipodi:docname="vectorian079.pdf"><metadata
     id="metadata8"><rdf:RDF><cc:Work
         rdf:about=""><dc:format>image/svg+xml</dc:format><dc:type
           rdf:resource="http://purl.org/dc/dcmitype/StillImage" /></cc:Work></rdf:RDF></metadata><defs
     id="defs6"><clipPath
       clipPathUnits="userSpaceOnUse"
       id="clipPath24"><path
         d="M 0,0 H 249.0032 V 122.00156 H 0 Z"
         id="path22" /></clipPath><clipPath
       clipPathUnits="userSpaceOnUse"
       id="clipPath32"><path
         d="M 0,-0.05809 H 248.81259 V 123.81529 H 0 Z"
         id="path30" /></clipPath><clipPath
       clipPathUnits="userSpaceOnUse"
       id="clipPath44"><path
         d="M 0,-0.05809 H 248.81259 V 123.81529 H 0 Z"
         id="path42" /></clipPath></defs><sodipodi:namedview
     pagecolor="#ffffff"
     bordercolor="#666666"
     borderopacity="1"
     objecttolerance="10"
     gridtolerance="10"
     guidetolerance="10"
     inkscape:pageopacity="0"
     inkscape:pageshadow="2"
     inkscape:window-width="640"
     inkscape:window-height="480"
     id="namedview4" /><g
     id="g10"
     inkscape:groupmode="layer"
     inkscape:label="vectorian079"
     transform="matrix(1.3333333,0,0,-1.3333333,0,162.66874)"><g
       id="g12"
       transform="translate(72,50)"><g
         id="g14"
         transform="translate(-72,-50)"><g
           id="g16"><g
             id="g18"><g
               id="g20"
               clip-path="url(#clipPath24)"><path
                 d="m 198.54645,18.61403 c -2.77443,0 -5.02567,-2.25603 -5.02567,-5.02408 0,-2.78403 2.25124,-5.02405 5.02567,-5.02405 2.77443,0 5.02885,2.24002 5.02885,5.02405 0,2.76805 -2.25442,5.02408 -5.02885,5.02408 z"
                 style="fill:#000000;fill-opacity:1;fill-rule:nonzero;stroke:#000000;stroke-width:0.3985;stroke-linecap:butt;stroke-linejoin:miter;stroke-miterlimit:10;stroke-dasharray:none;stroke-opacity:1"
                 id="path26" /><g
                 id="g28"
                 clip-path="url(#clipPath32)"><path
                   d="m 10.0496,86.4709 c 0,2.76804 -2.24801,5.02406 -5.02404,5.02406 -2.77605,0 -5.02565,-2.25602 -5.02565,-5.02406 0,-2.78403 2.2496,-5.02406 5.02565,-5.02406 2.77603,0 5.02404,2.24003 5.02404,5.02406 z"
                   style="fill:#000000;fill-opacity:1;fill-rule:nonzero;stroke:#000000;stroke-width:0.3985;stroke-linecap:butt;stroke-linejoin:miter;stroke-miterlimit:10;stroke-dasharray:none;stroke-opacity:1"
                   id="path34" /><path
                   d="m 46.67567,82.16685 c 0.71523,0 1.39363,0.144 2.00644,0.41601 0.88802,-1.21602 4.38086,-5.80809 6.24969,-5.80809 2.15363,0 4.31045,-1.79203 4.31045,-1.79203 l 0.71519,1.44004 c -0.36,2.14402 -2.5104,1.79202 -5.74404,3.93605 -1.76804,1.184 -2.89126,2.68803 -3.54568,3.80804 0.64003,0.83202 1.03362,1.87203 1.03362,3.02403 0,2.76804 -2.25122,5.02408 -5.02567,5.02408 -2.77761,0 -5.02885,-2.25604 -5.02885,-5.02408 0,-2.78402 2.25124,-5.02405 5.02885,-5.02405 z"
                   style="fill:#000000;fill-opacity:1;fill-rule:nonzero;stroke:#000000;stroke-width:0.3985;stroke-linecap:butt;stroke-linejoin:miter;stroke-miterlimit:10;stroke-dasharray:none;stroke-opacity:1"
                   id="path36" /><path
                   d="m 147.9202,53.43047 c 0,0 -0.20641,0.048 -0.54241,0.096 0.2896,-0.12799 0.54241,-0.096 0.54241,-0.096 z"
                   style="fill:#000000;fill-opacity:1;fill-rule:nonzero;stroke:#000000;stroke-width:0.3985;stroke-linecap:butt;stroke-linejoin:miter;stroke-miterlimit:10;stroke-dasharray:none;stroke-opacity:1"
                   id="path38" /><g
                   id="g40"
                   clip-path="url(#clipPath44)"><path
                     d="m 225.46999,36.19824 c -19.74266,0.36801 -30.87398,-3.58403 -36.61808,-6.46408 -5.74566,-2.86403 -7.54089,-4.67206 -12.56495,-4.67206 -5.02887,0 -13.28499,10.41614 -13.64339,17.24823 -0.36,6.81609 5.38408,11.84014 12.56337,11.48817 7.18249,-0.36803 11.13135,-9.69614 11.13135,-9.69614 0,0 1.08001,4.67205 10.41133,8.2561 9.33772,3.58406 16.51541,-3.95204 16.51541,-3.95204 0,0 -4.30565,5.39208 2.15683,12.57614 6.46248,7.16811 14.00339,7.5361 14.00339,7.5361 -10.77294,20.46428 19.38743,30.51241 19.38743,30.51241 -29.44035,-2.88005 -28.72516,16.16021 -28.72516,16.16021 -2.51362,-8.62413 -11.48815,-10.76815 -18.30903,-10.76815 -6.82249,0 -12.20656,7.53608 -12.20656,7.53608 0,0 3.23044,-5.02403 -3.95045,-14.72017 -7.18091,-9.69613 -19.74906,-7.90411 -19.74906,-7.90411 5.02727,-5.02406 5.02727,-8.2561 2.51364,-15.79221 -2.51364,-7.53608 -9.69293,-12.92816 -8.61772,-28.72036 1.07842,-15.8082 13.64658,-22.27228 13.64658,-22.27228 -4.66886,-4.30405 -16.87862,-5.02406 -20.82587,-4.30405 -2.30243,0.416 -4.11205,2.43201 -5.22087,4.03203 1.40482,0.88004 2.34883,2.44804 2.34883,4.22408 0,2.78402 -2.24962,5.02404 -5.02406,5.02404 -2.77924,0 -5.02887,-2.24002 -5.02887,-5.02404 0,-2.76805 2.24963,-5.02408 5.02887,-5.02408 0.44481,0 0.87201,0.08001 1.28322,0.192 l 3.02244,-3.77605 c -2.87205,-0.36799 -6.46248,0 -10.77135,1.44002 -4.30725,1.42403 -7.8977,3.95204 -15.43859,5.37607 -7.53771,1.44002 -13.28337,7.5361 -14.00019,12.92816 -0.71841,5.39209 3.23204,11.84016 12.56656,13.28018 9.33452,1.44002 11.48818,-3.23202 11.48818,-3.23202 1.43681,4.67204 7.89929,6.83208 10.41131,6.46405 1.76642,-0.23999 3.33444,-0.49601 4.12326,-0.624 -0.61601,0.27203 -1.39844,1.26403 -0.17601,4.94407 1.79683,5.37606 8.97772,6.09606 8.97772,6.09606 -5.02406,2.86405 -2.51203,8.25611 -1.43681,10.04815 1.07841,1.80803 3.59044,8.97612 3.59044,11.85615 0,2.86403 -2.51203,1.79202 -2.51203,1.79202 0.7152,-12.20816 -12.20977,-16.5122 -15.07859,-15.44021 -2.87526,1.07203 -5.02887,3.23205 -5.02887,3.23205 3.23202,-4.67206 -0.35842,-7.5361 -3.23044,-11.13614 -2.87205,-3.58404 -6.46248,1.08802 -6.46248,1.08802 1.0784,-10.06412 -3.95047,-9.34412 -10.41453,-14.00019 -6.46088,-4.67205 -9.33455,-9.34411 -9.33455,-9.34411 -3.58565,24.41632 13.64499,33.39242 16.51703,33.39242 2.87203,0 3.59045,0.36802 3.59045,0.36802 0,0 -3.94885,2.14402 -3.94885,6.44807 0,4.32005 7.54089,9.69612 8.97612,9.69612 1.43683,0 0.71681,1.44002 0.71681,1.44002 -2.87206,0 -5.38568,1.07204 -6.4625,4.30406 -1.07841,3.23203 1.07682,6.4641 2.87203,8.62413 1.79683,2.16 1.43843,3.58403 1.43843,3.58403 -3.95366,-3.23204 -8.61612,-1.79202 -9.69453,2.88004 -1.07842,4.65605 3.23205,7.8881 3.23205,7.8881 -2.87204,2.52803 -5.02887,-1.42401 -7.18249,-5.02407 -2.15203,-3.58405 -3.23044,-4.65604 -6.46248,-3.58405 -3.23045,1.07202 -3.23045,0.72002 -3.23045,0.72002 0,0 2.87204,-3.60005 0.71841,-7.55211 -2.15363,-3.93604 -4.30885,-3.93604 -7.18091,-3.93604 -2.87202,0 -1.79842,-0.72 -1.79842,-0.72 5.02567,-3.60007 5.02887,-7.53612 4.31048,-11.48816 -0.71523,-3.95205 -5.02568,-4.32005 -7.89769,-3.95205 -2.87525,0.35201 -2.15204,-1.44002 -2.15204,-1.44002 12.56495,-5.02407 10.76812,-11.48816 11.12814,-30.1604 0.3584,-18.67223 3.95044,-21.53626 3.95044,-21.53626 l -1.44003,-0.36801 c -6.46086,2.16003 -21.53946,21.90427 -25.1299,26.22434 -3.59047,4.30406 -6.8225,5.37606 -6.8225,5.37606 -3.59044,3.58405 -8.97451,7.5361 -8.97451,7.5361 l 0.64961,10.09612 c 2.63843,0.14401 4.73446,2.30405 4.73446,4.99208 0,2.76804 -2.24963,5.02406 -5.02406,5.02406 -2.77603,0 -5.02568,-2.25602 -5.02568,-5.02406 0,-1.98402 1.15682,-3.68005 2.82244,-4.49606 l -0.3136,-8.80011 c -5.80007,1.93602 -10.74254,0.89601 -12.71695,0.32001 -0.90402,1.32801 -2.42565,2.20802 -4.15528,2.20802 -2.77443,0 -5.02404,-2.25601 -5.02404,-5.04007 0,-2.76804 2.24961,-5.02405 5.02404,-5.02405 2.77603,0 5.02408,2.25601 5.02408,5.02405 0,0.28801 -0.03522,0.54401 -0.08001,0.80001 l 0.08001,-0.08 c 15.08019,2.16002 18.31064,-7.5361 21.54268,-9.69612 3.23044,-2.14404 5.74725,-5.37608 8.61931,-9.32812 2.87044,-3.95204 13.64016,-14.36818 13.64016,-14.36818 0,0 -2.87362,0.368 -25.49151,10.78413 C 47.0325,59.17455 26.56982,72.82271 18.31052,84.31087 10.05281,95.79903 9.3344,102.98311 9.3344,102.98311 c 6.10408,-2.88002 12.56657,5.74408 6.82248,8.9761 C 10.40962,115.19128 3.58713,110.1672 5.38396,101.54308 7.17758,92.935 15.07848,78.5668 29.08186,68.51866 43.08524,58.47054 60.31586,48.0544 60.31586,48.0544 45.23886,44.45435 40.21,54.87048 40.21,54.87048 39.4948,53.07848 40.92842,50.56644 40.92842,50.56644 30.51549,37.99028 20.82256,40.1503 17.95052,41.59033 15.07848,43.03035 16.5153,40.87032 16.5153,40.87032 18.31052,38.35828 25.49141,34.03822 17.2321,28.31015 11.01604,23.97409 2.51192,14.66199 2.51192,14.66199 c 11.12973,5.74406 27.28515,0.72 27.28515,0.72 -6.46087,-3.95207 -7.5377,-10.76814 -7.5377,-10.76814 5.02887,3.58404 12.92496,2.86402 20.10426,1.79203 7.18088,-1.08804 12.56817,-6.46406 12.56817,-6.46406 0,0 1.79362,6.46406 10.41293,7.53605 8.61612,1.07204 12.56337,-3.95204 12.56337,-3.95204 -1.07523,8.97612 4.30885,10.06412 6.82408,10.76813 2.51043,0.72 6.10408,6.11209 6.10408,6.11209 5.38406,3.23204 19.02745,2.14403 25.13151,0.71999 6.10248,-1.44 11.48655,-2.16001 11.48655,-2.16001 3.95207,-4.30404 16.87863,-4.30404 16.87863,-4.30404 -3.37765,-5.3441 -8.94733,-5.18409 -11.20014,-4.86408 -0.89284,1.40801 -2.45285,2.35202 -4.23686,2.35202 -2.77924,0 -5.02727,-2.25603 -5.02727,-5.02406 0,-2.78403 2.24803,-5.02405 5.02727,-5.02405 2.77443,0 5.02406,2.24002 5.02406,5.02405 0,0.14401 -0.0304,0.28803 -0.048,0.44803 1.43683,0.12797 4.04486,0.36798 5.79207,0.62399 2.50883,0.36801 10.05293,6.4641 10.05293,6.4641 16.51703,-2.88005 29.082,4.67204 37.70129,8.9761 8.61611,4.30405 17.95063,7.53611 20.46267,8.25611 2.51203,0.72001 2.51203,-1.44002 2.51203,-1.44002 -2.51522,-2.86405 -5.74407,-10.04813 -5.74407,-11.48815 0,-1.44001 1.0784,-2.51203 4.66566,5.02407 3.59204,7.55208 10.05774,7.53608 12.20976,7.1841 2.15361,-0.35203 5.02567,-4.67206 5.02567,-6.4641 0,-1.79201 2.51201,-2.51203 2.51201,-0.35199 0,2.14403 -3.23043,8.2561 -3.23043,8.2561 3.95205,0 10.05294,-0.36801 14.36179,-3.95205 4.31046,-3.60006 0.35999,-4.67206 -0.72,-6.11208 -1.07684,-1.42404 -1.07684,-5.02406 2.87683,-5.37608 3.94723,-0.352 5.74405,1.44003 5.74405,6.11207 0,4.65607 -2.87523,12.56017 -22.62428,12.91217 z m -25.84513,61.0408 c 0,0 -6.82249,-10.76814 -7.18089,-13.64817 0,0 -2.15683,-1.44002 -2.15683,1.79202 0,3.23204 3.23046,11.50415 9.33772,11.85615 z m -35.54448,-39.8565 c 0.83043,1.88801 4.67847,6.24006 10.26575,11.36014 l -0.2128,0.12799 c 0,0 -0.003,13.28018 5.02565,14.00018 0,0 -2.53122,-6.64008 -1.6528,-11.31213 9.41132,8.12809 22.38748,17.29621 34.54124,21.42427 0.56,2.38403 2.44323,7.7601 8.04331,7.48809 L 215.17386,93.927 c 4.79524,1.28 9.40491,1.68003 13.53297,0.8 0,0 -7.02569,-1.29602 -17.01622,-5.45606 1.94403,-0.49601 5.18087,-1.37603 7.3217,-2.08004 3.23204,-1.088 0.71521,-2.51202 0.71521,-2.51202 0,0 -7.3473,2.52802 -10.97134,3.32805 -3.63525,-1.61603 -7.57291,-3.61606 -11.65936,-6.03209 3.60965,-0.448 11.85615,-1.96802 16.53141,-6.64008 0,0 -14.72178,3.60004 -21.18106,3.60004 l 0.336,0.36801 c -3.81764,-2.48004 -7.70569,-5.36008 -11.53935,-8.64012 5.16806,-0.24001 14.99381,-1.56802 22.33148,-7.88809 0,0 -13.17135,4.81605 -25.52832,5.02406 -4.76328,-4.41606 -9.38573,-9.53613 -13.60658,-15.4402 0,0 -3.23683,-1.44002 -0.36002,5.02408 z m -26.21151,0.72 4.30725,0.368 c 0,0 -1.79363,-4.32007 -4.30725,-0.368 z m -5.02565,0.72 c 1.21438,0.832 2.96801,2.03203 4.89764,3.32803 -0.2944,1.26404 -0.0896,3.32805 3.36164,4.92809 l -0.7264,-3.13605 c 4.85126,3.29604 9.83533,6.76809 10.06093,7.44009 0,0 -3.59046,-10.04812 -22.61949,-17.5842 0,0 -2.87204,-1.08805 -2.87204,0.35197 0,1.44003 3.23204,1.44003 7.89772,4.67207 z m -20.8227,17.95223 0.35842,3.23205 5.38568,1.79202 c 0,0 -2.51366,-5.02407 -5.7441,-5.02407 z m 2.87204,11.48815 c -2.87204,1.07201 3.23046,4.67208 6.46248,4.67208 0,0 -3.59042,-5.7441 -6.46248,-4.67208 z m 7.17929,14.72019 c 0,0 -2.15522,-5.39208 -5.02566,-5.39208 0,0 -1.43521,0 0,2.16004 1.43362,2.16003 5.02566,3.23204 5.02566,3.23204 z m -13.74258,-22.1603 c 0.36961,2.40004 0.80002,4.94407 1.31363,7.50411 l -0.1344,-0.064 c 0,0 -2.87524,3.58405 -0.72002,6.09609 0,0 0.47522,-1.87204 1.41443,-3.36005 0.46881,2.11204 0.99201,4.20804 1.57282,6.20807 -0.59682,0.84802 -1.98723,3.32805 -0.83521,6.49608 l 2.23042,-2.22401 c 1.28963,3.50404 2.80803,6.46408 4.59368,8.3201 0,0 -7.17931,-30.5124 -7.90091,-35.90446 -0.71523,-5.37608 -3.23045,-7.5361 -3.23045,-7.5361 0,0 0.35522,4.88006 1.25921,11.44016 -1.06239,1.31201 -2.69443,3.72804 -2.69443,6.16006 z M 68.21675,46.26237 c 1.79683,-1.44001 8.97453,-5.04005 11.13136,-5.04005 0,0 1.43361,-2.14402 -0.71843,-2.14402 0,0 -9.69451,2.86402 -12.92494,7.18407 0,0 0.7152,1.42405 2.51201,0 z M 33.39073,31.54218 c 0,0 -5.38888,0 -7.18091,2.49604 0,0 7.18091,1.80802 7.18091,-2.49604 z m 56.72551,-5.04004 c -3.58724,0.72 -9.33452,-0.70401 -17.94902,-9.68014 0,0 -1.43842,0.70402 0.3584,2.86404 1.79362,2.16001 6.10406,7.18409 10.77295,8.62411 0,0 -4.05286,1.69603 -9.71054,3.04002 C 70.5016,29.79819 64.1255,25.78212 54.5718,15.73398 c 0,0 3.59843,11.08813 14.80659,16.48022 -2.65924,0.448 -5.49929,0.75202 -8.34253,0.75202 -2.35361,0 -4.76486,-0.09601 -7.27527,-0.336 -2.77605,-2.52805 -9.68494,-8.86414 -11.39377,-11.15216 0,0 -1.74722,5.26408 6.87208,10.57614 -8.36327,-1.29602 -18.15382,-4.24007 -31.28518,-10.20815 0,0 7.8961,8.97612 28.36195,12.9282 1.65123,0.30398 3.33126,0.54399 5.02089,0.70399 0.0032,0 -5.38247,5.74408 -7.89132,6.46408 0,0 4.75206,3.16805 10.39053,-6.27208 5.53928,0.32001 11.13936,-0.09599 16.29301,-0.89599 -0.83361,1.664 -1.91203,4.06404 -1.91203,5.37605 0,0 1.07523,-0.352 2.51205,-2.51204 0.7184,-1.07201 1.98081,-2.43202 3.05605,-3.50403 10.32332,-2.04803 18.08663,-5.47207 18.48343,-7.2641 0,0 1.44002,-1.072 -2.15204,-0.36799 z m -5.38406,11.48814 c 0,0 7.53929,-2.51204 15.43858,-6.09608 7.89931,-3.58405 12.92499,-7.53609 12.92499,-7.53609 0,0 -21.90109,0.70399 -28.36357,13.63217 z"
                     style="fill:#000000;fill-opacity:1;fill-rule:nonzero;stroke:#000000;stroke-width:0.3985;stroke-linecap:butt;stroke-linejoin:miter;stroke-miterlimit:10;stroke-dasharray:none;stroke-opacity:1"
                     id="path46" /><path
                     d="m 211.11142,18.24603 c -2.77444,0 -5.02408,-2.24005 -5.02408,-5.02408 0,-2.76803 2.24964,-5.02406 5.02408,-5.02406 2.77922,0 5.02725,2.25603 5.02725,5.02406 0,2.78403 -2.24803,5.02408 -5.02725,5.02408 z"
                     style="fill:#000000;fill-opacity:1;fill-rule:nonzero;stroke:#000000;stroke-width:0.3985;stroke-linecap:butt;stroke-linejoin:miter;stroke-miterlimit:10;stroke-dasharray:none;stroke-opacity:1"
                     id="path48" /></g></g></g></g></g></g></g></g></svg>
