<?xml version="1.0" encoding="UTF-8" standalone="no"?>
<svg
   xmlns:dc="http://purl.org/dc/elements/1.1/"
   xmlns:cc="http://creativecommons.org/ns#"
   xmlns:rdf="http://www.w3.org/1999/02/22-rdf-syntax-ns#"
   xmlns:svg="http://www.w3.org/2000/svg"
   xmlns="http://www.w3.org/2000/svg"
   xmlns:sodipodi="http://sodipodi.sourceforge.net/DTD/sodipodi-0.dtd"
   xmlns:inkscape="http://www.inkscape.org/namespaces/inkscape"
   version="1.1"
   id="svg2"
   xml:space="preserve"
   width="475.33942"
   height="59.447906"
   viewBox="0 0 475.33942 59.447906"
   sodipodi:docname="vectorian087.pdf"><metadata
     id="metadata8"><rdf:RDF><cc:Work
         rdf:about=""><dc:format>image/svg+xml</dc:format><dc:type
           rdf:resource="http://purl.org/dc/dcmitype/StillImage" /></cc:Work></rdf:RDF></metadata><defs
     id="defs6"><clipPath
       clipPathUnits="userSpaceOnUse"
       id="clipPath24"><path
         d="M 79.001,0 H 435.50558 V 45.00056 H 79.001 Z"
         id="path22" /></clipPath></defs><sodipodi:namedview
     pagecolor="#ffffff"
     bordercolor="#666666"
     borderopacity="1"
     objecttolerance="10"
     gridtolerance="10"
     guidetolerance="10"
     inkscape:pageopacity="0"
     inkscape:pageshadow="2"
     inkscape:window-width="640"
     inkscape:window-height="480"
     id="namedview4" /><g
     id="g10"
     inkscape:groupmode="layer"
     inkscape:label="vectorian087"
     transform="matrix(1.3333333,0,0,-1.3333333,-0.00133333,59.447907)"><g
       id="g12"
       transform="translate(72,-27)"><g
         id="g14"
         transform="translate(-151,27)"><g
           id="g16"><g
             id="g18"><g
               id="g20"
               clip-path="url(#clipPath24)"><path
                 d="m 430.76514,22.45908 c -4.66075,0.07449 -11.43735,-0.5708 -15.10669,-2.75473 -2.61335,0.4219 -7.20101,1.83651 -9.67034,1.83651 -2.47192,0 -2.75352,0.21089 -4.30716,1.12921 -1.5536,0.9182 -2.96452,1.34013 -2.82302,1.70003 0.14019,0.3474 3.52905,1.97304 7.9057,4.09496 4.37664,2.10951 8.25702,3.23874 7.90579,4.30594 -0.35359,1.05471 -2.04871,0.34741 -6.28267,-2.12192 -4.23647,-2.46942 -10.79953,-5.16217 -11.71784,-5.58408 -0.91822,-0.42189 -2.75355,0 -10.72885,-2.4694 -5.43388,-1.47664 -7.90451,-2.39496 -7.19839,-1.05474 0.70482,1.34014 6.56309,6.1424 5.08266,7.19719 -0.84871,0.49631 -3.45963,-3.10223 -6.14238,-6.14245 -1.69391,-1.83655 -4.80105,-3.10227 -9.17772,-4.30599 -4.37545,-1.19119 -9.1765,-3.38763 -11.78853,-3.31312 -0.50882,-0.54602 -1.20003,-0.80663 -1.77956,-0.94312 -2.3341,1.25331 -5.76025,2.80444 -9.442,2.99053 -1.58702,0.18621 -5.06528,2.09715 -8.2693,3.94616 2.66293,-0.03731 6.60158,1.42702 8.76822,2.33281 5.92897,-3.57373 7.26918,-1.31531 5.94755,-0.58319 -1.36371,0.75692 -0.7991,1.45183 1.08092,0.70731 1.88364,-0.75692 5.03677,-1.27811 5.64728,-0.2854 0.613,0.98031 -2.06983,1.88612 -1.92961,2.20883 0.144,0.335 1.17889,0.13649 4.66084,0.0993 1.91223,-0.0249 3.47574,0.95542 3.71524,1.88611 0.19982,0.74451 -0.7892,1.41463 -0.70479,1.73721 0.0918,0.33513 1.79062,0.31032 3.34174,0.89353 1.69261,0.64522 3.22383,1.92333 2.68283,3.01535 -1.03621,2.0599 -5.60018,-1.36502 -5.97618,-0.89342 -0.3785,0.45909 0.376,2.10953 -1.12921,2.44452 -1.78943,0.55841 -5.74167,-4.38034 -6.30629,-3.90884 -0.56459,0.47162 0.79913,3.05265 -1.17641,3.05265 -2.40114,-0.0372 -4.04655,-6.15489 -4.80097,-6.30378 -0.7533,-0.13651 -0.28048,1.74972 -1.78822,1.6008 -1.68631,-0.1738 -3.00792,-3.05263 -3.56753,-4.50445 -6.06179,-2.91615 -9.81804,-2.33293 -11.26984,-1.88622 -0.66643,0.3847 -1.28683,0.74449 -1.82043,1.0299 -3.48194,1.87383 -7.53229,4.70307 -16.56722,7.433 -0.56341,0.37232 1.41211,1.31543 13.83598,4.61617 12.42396,3.28843 16.75461,4.33075 17.60093,6.20459 0.84761,1.8861 -0.75191,2.35762 -1.41091,1.78682 -0.65892,-0.55843 0.8463,-1.78682 -4.04776,-3.47446 -4.89537,-1.7001 -18.35415,-5.08777 -19.48335,-5.64618 1.0348,1.78693 3.24245,3.41255 3.67174,6.30378 0.37601,2.54385 -1.18752,1.58843 -1.4133,0.08692 -0.28052,-1.87384 -2.16414,-5.17457 -5.5519,-6.7753 -3.38884,-1.60083 -7.8114,-1.50151 -10.16542,-2.25852 -2.16414,-0.68241 -5.89677,-1.60073 -7.94919,-1.31533 -0.67382,0.89343 -1.68884,1.61322 -1.01504,2.12195 1.19992,0.89349 5.57408,-1.12924 7.76181,0.211 4.02675,3.02774 -1.81052,3.02774 -1.33891,3.94606 0.46899,0.91819 5.71678,2.27081 4.87056,4.09494 -1.62311,2.96573 -5.93027,-0.84382 -5.93027,-0.84382 0,0 -0.14031,1.70002 -1.26952,1.91102 -3.38885,0.49632 -4.72906,-4.56655 -5.71808,-4.09505 -0.98892,0.47162 0.84882,2.68045 -0.91821,2.60593 -2.61084,-0.211 -3.55275,-6.09278 -5.01195,-5.85706 -1.45933,0.23581 -0.0708,2.18404 -0.98654,1.97302 -2.21753,-0.95552 -3.94613,-4.18186 -3.96724,-6.22928 -0.80281,-0.91832 -2.93344,-2.82925 -8.03479,-4.85197 -1.36743,-0.5336 -1.99904,-0.27301 -2.29564,0.01239 0.7135,0.57082 1.7695,1.65044 2.01392,3.30087 0.2619,1.77451 -0.6341,2.99053 -1.2061,3.56134 0.819,0.88111 1.37611,2.05992 1.44191,3.41255 0.14021,2.91604 -2.58853,4.98834 -3.01294,4.33074 0,0 -0.30269,-0.35991 -0.76811,-0.89351 -1.30661,0.88101 -6.09029,3.90886 -7.7482,2.02274 -1.71862,-1.94823 1.91475,-6.13009 3.27856,-7.2965 -0.11792,-0.1365 -0.21722,-0.26062 -0.26813,-0.3351 -0.5646,-0.74452 0.89351,-2.68035 3.43605,-2.81683 1.05233,-0.06201 2.06983,0.29779 2.92603,0.9307 0.36111,-0.26062 1.26703,-1.12922 0.88362,-3.13955 -0.36241,-1.93571 -2.50293,-2.92852 -3.44855,-3.28833 -0.4268,-0.12411 -0.80902,-0.2234 -1.02002,-0.29782 -0.70478,-0.211 -2.82302,-0.9183 -8.824,-1.4022 -5.99848,-0.4964 -7.19971,-0.42191 -7.4107,-1.12923 -0.2134,-0.70731 0.14031,-1.98543 0.70611,-1.83652 0.56212,0.13649 3.81087,1.55112 6.77409,1.0547 2.05373,-0.33499 3.50925,-0.88099 4.22777,-1.17881 0.78421,-4.44244 2.1591,-8.21479 3.39753,-8.21479 1.26952,0 0.91831,2.82923 1.76461,2.04752 0.77551,-3.23874 1.48283,-8.04109 2.96326,-8.25201 1.4841,-0.211 1.5536,1.68764 1.41342,2.75485 -0.14031,1.0547 1.12921,1.47661 1.48031,-0.78181 0.3549,-2.25844 2.11821,-5.64608 3.74254,-5.64608 1.62444,0 -0.4938,2.68034 0.77561,3.10224 1.27192,0.43431 0.98901,-3.88406 2.61215,-3.73514 1.62431,0.1365 0.28159,1.70001 1.27061,2.184 0.989,0.49633 2.04754,-3.38762 3.38764,-1.62561 1.34273,1.77454 -4.51686,3.61106 -4.72775,4.74027 -0.21102,1.12921 2.54013,0 2.75352,1.19131 0.1402,3.74747 -5.93147,3.38765 -6.35339,4.30586 -0.42321,0.91831 3.38885,0.28541 2.82174,2.54383 -0.5621,2.25844 -7.26919,2.33293 -7.26919,2.33293 0,0 2.39993,0.91832 1.90603,2.46944 -0.49511,1.55111 -3.74005,1.0547 -7.4826,0.91821 -3.74135,-0.14891 -5.36568,0.98032 -5.36568,0.98032 l 0.0869,-0.09932 c -0.61301,0.2482 -1.27692,0.48402 -1.99163,0.67012 3.17545,0.63292 6.21188,1.26572 7.057,1.34021 0.3549,-0.5584 0.5671,-1.41462 2.04872,-1.34021 0.84501,0.0372 1.52382,0.47162 1.95562,0.8314 1.21233,-0.0124 3.33554,-0.02481 7.07938,-0.04959 6.94901,-0.0621 11.58256,-1.87382 13.161,-2.60593 -0.37352,-1.48902 0.8723,-5.37307 1.3811,-5.31109 0.56461,0.07451 1.83401,2.90375 1.97554,1.35263 0.35359,-4.38036 3.03642,-5.72058 3.67172,-5.79498 0.63413,-0.0745 0.28052,1.76203 1.05852,2.18394 0.77562,0.42189 1.55112,-2.74236 2.68285,-4.30586 1.12921,-1.55123 3.24493,-1.26583 2.82432,0.2109 -0.42441,1.48913 0.91573,1.41462 2.04494,-0.8438 1.12921,-2.25844 4.23645,-2.33294 3.81204,0.14889 -0.4243,2.46944 -3.17664,1.97302 -3.67174,3.17674 -0.49141,1.19122 3.24744,-0.07449 2.04872,2.74234 -1.20002,2.82923 -5.08277,1.20371 -5.71807,2.54383 -0.63411,1.34022 3.17794,0.5708 2.75355,1.34022 -1.41093,4.16945 -8.11923,1.91103 -8.33023,2.61833 -0.21089,0.70731 1.12923,0.9803 1.12923,1.89855 0,0.84379 -5.59769,-0.38472 -7.14881,-1.30294 -3.69163,2.22123 -9.73612,2.94094 -14.80397,3.13944 0.18868,0.5708 4.91025,1.58842 8.06841,2.22124 1.49771,-0.5584 2.96452,-0.70733 3.43852,-0.17373 0.98652,1.12925 -2.44713,2.30803 -1.34271,2.61835 0.64781,0.17371 2.41983,-0.86871 4.17447,-1.35263 0.73079,-0.43429 1.54361,-0.76939 2.0623,-0.55839 1.12923,0.47151 3.48195,2.72995 10.25854,3.01535 6.56069,0.27299 12.42145,-2.55623 19.61985,-6.82489 0.25441,-0.79422 0.67881,-2.07235 1.30423,-3.78475 1.08079,-2.95335 0.5038,-6.76289 -4.17436,-11.29227 -0.93572,-0.71969 -2.44463,-1.3029 -1.94082,-2.23362 0.5038,-0.93061 -1.43944,-1.07952 -0.86493,-2.30803 0.57581,-1.21611 -1.4382,-2.22123 -0.7904,-3.01544 0.64651,-0.79407 4.24386,-1.22839 4.24386,0.14891 0,1.36502 -1.65533,2.29573 -1.07832,2.94095 0.57582,0.64529 -0.21589,1.0796 0.28791,2.15921 0.50129,1.07951 1.94203,2.23364 4.24635,5.39788 2.30182,3.16433 2.44585,6.19206 1.65283,8.12789 -0.4554,1.12922 -0.52612,1.94822 -0.50623,2.45704 6.5221,-3.74755 10.49425,-5.18697 13.01209,-10.22503 1.31901,-3.20156 1.78932,-4.23146 2.91853,-3.67305 1.12921,0.57081 -1.97551,5.74536 -4.23395,7.53221 0,0 4.89286,-0.08682 8.18631,-1.60072 3.29453,-1.50155 2.72873,-2.81684 4.61235,-2.81684 1.88373,0 3.95356,0 4.89287,-0.47162 0.41701,-0.2109 1.0163,-0.608 1.55612,-0.98021 -0.45042,-2.12202 -0.51121,-4.39285 1.64672,-5.28627 1.76332,-0.90591 3.80954,-0.3475 3.80954,-0.3475 0,0 0.84752,-1.05472 4.30716,-0.49631 3.45834,0.57082 2.54133,2.25843 0.70481,4.09496 -1.83532,1.83651 -3.17544,1.41461 -3.17544,1.41461 0,0 -0.84752,3.38763 -2.82304,3.52415 -1.67272,0.1241 -3.48574,-1.11683 -4.09125,-1.84893 -0.64531,0.34742 -2.08724,1.11682 -2.59354,1.32772 -0.62541,0.27302 -1.68391,-0.2109 -3.08233,0.3971 0.0335,0.23581 -0.0435,0.59572 -0.39841,1.11682 3.88284,0.76941 10.37643,2.82924 15.175,3.88405 4.80104,1.0547 10.94223,3.38765 11.57765,3.23874 0.6353,-0.13649 1.90723,-0.13649 3.74256,-0.55841 0.68249,-0.1613 1.2669,-0.2854 1.7347,-0.38471 0.3028,-0.81891 1.39114,-2.03502 2.40493,-2.32042 1.31532,-0.3723 2.72874,-4.43005 3.85796,-4.04536 1.12922,0.3723 1.31901,1.21614 1.31901,1.21614 0,0 2.63445,-3.20155 3.76366,-3.00305 1.12932,0.1862 0,1.50151 1.31791,1.50151 1.31902,0 3.19904,-2.73003 4.42374,-1.50151 1.22354,1.21611 -1.41089,3.18915 -3.38884,3.28845 -1.97801,0.09918 1.03493,1.22841 1.97795,1.22841 0.94062,0 -0.3784,2.53143 -5.27128,1.97302 -1.88373,0.1862 0.65892,1.97313 -0.7545,2.73004 -1.40963,0.75692 -3.76366,0.18608 -4.13846,0.3723 -0.37841,0.1861 0.0919,1.31531 -1.50763,1.31531 -1.40842,0 -3.10472,-1.01752 -3.81575,-1.83653 -1.13172,0.22333 -2.37262,0.57081 -1.9234,1.01751 0.7755,0.78182 7.9752,2.96575 8.39709,2.04754 0.42442,-0.91829 1.76714,-0.42189 3.45845,-1.55112 1.69632,-1.12921 1.97801,-2.25842 4.66086,-2.25842 2.68033,0 11.57504,-2.18404 17.86023,-6.42789 1.83403,-0.6329 2.39862,1.83652 -0.0732,2.96574 -2.46943,1.12921 -4.09376,1.27811 -3.45834,2.18393 0.6353,0.91831 9.24841,2.40743 16.2359,1.20371 1.48282,0.35991 0.49511,2.46943 -4.16325,2.54384 z m -77.43839,4.93876 c 0.84882,0.91831 1.41339,2.04753 1.41339,1.34021 0,-0.70732 -0.8488,-1.26571 0,-1.12919 0.84632,0.14888 1.55364,0.14888 2.39986,0.91819 0.8476,0.7818 2.32922,2.89135 2.11822,1.76212 -0.2109,-1.1292 -1.13042,-1.05481 -0.2109,-1.1292 0.9158,-0.06201 2.25842,0.70731 1.90472,-0.06201 0,0 -1.62431,-0.9183 -2.39982,-1.27823 -0.77812,-0.34739 2.61082,-0.91819 1.97552,-1.26571 -0.63541,-0.35981 -3.24745,0.70732 -4.23396,0.42192 -0.98902,-0.2854 -1.48291,-0.21093 -1.05982,-0.6328 0.42441,-0.42192 1.13053,-1.62564 0.0708,-1.06723 -1.05851,0.57082 -2.68283,0.99271 -3.45845,0.49641 -0.77549,-0.49641 -2.68283,-1.47672 -2.61203,-0.98032 0.0695,0.48391 3.24746,1.68761 4.09247,2.60584 z m -52.3772,10.31194 c 0.91832,1.12919 1.55364,2.39492 1.55364,1.55112 0,-0.84382 -1.26941,-2.33294 -0.42309,-1.91105 0.8475,0.42192 3.53033,2.04755 3.67172,1.70003 0.15641,-0.39698 -2.75353,-2.54382 -3.95343,-3.38763 -1.20243,-0.85622 -1.76462,0.91829 -0.84884,2.04753 z M 284.29045,9.1815 c 0.42322,0.14891 2.82553,-0.55839 2.47192,-1.0548 -0.35369,-0.4964 0,0 -0.63539,-0.13651 -0.63781,-0.14889 0,0 0.211,-0.99271 0.21089,-0.98031 0.21089,-1.97304 -0.42192,-0.76942 -0.6378,1.19131 -2.40361,2.69285 -1.62561,2.95344 z m -1.83522,1.70002 c 1.55351,-0.34749 1.55351,-1.20371 0.778,-1.20371 -0.778,0 -1.34511,1.32781 -0.778,1.20371 z m -7.27051,6.8497 c 0.63413,0.07449 2.26094,-1.76204 3.88156,-2.18393 1.62432,-0.43431 3.10845,-0.5708 3.10845,-0.99272 0,-0.42189 -0.70851,-0.21099 -1.83522,-0.3599 -1.13173,-0.13652 1.26941,-1.40224 0.70479,-1.61311 -0.5646,-0.22341 -2.11823,1.12921 -2.75232,1.55112 -0.6353,0.42189 0.14019,-1.55112 -0.42443,-1.77453 -0.56459,-0.21092 -0.6353,0.57081 -0.77549,2.25843 -0.14031,1.70001 -2.92853,3.00303 -1.90734,3.11464 z m 24.94092,2.68043 c 0.56702,0.65759 2.07225,-0.55841 3.10715,-1.41463 1.03491,-0.8439 2.54263,-1.68772 3.19905,-2.25852 0.6602,-0.5584 4.70676,-3.20145 4.33206,-3.57375 -0.37602,-0.37232 -0.75452,0.2854 -1.59953,0.6577 -0.84882,0.37222 -0.1899,-1.2285 -0.6602,-0.47159 -0.47031,0.757 -1.22352,1.70001 -4.33077,3.67304 -3.10474,1.97312 -1.50522,0.8438 -1.50522,-0.0992 0,-0.94312 -0.7507,0.67012 -1.69381,1.70003 -0.9406,1.02992 -1.42582,1.11682 -0.84873,1.78692 z m -11.95114,6.27889 c -1.91592,-0.17372 -3.12584,0.12408 -3.76115,0.37228 1.68513,0.81903 3.19154,1.48914 3.82446,1.63803 0.54969,-0.63292 1.40341,-1.20372 2.32912,-1.65042 -0.7271,-0.14889 -1.53123,-0.27301 -2.39243,-0.35989 z m 2.39992,3.25123 c -0.70729,-0.4219 -0.63539,1.20363 0.14023,1.34011 0.77549,0.13652 1.3401,0.63292 2.5426,1.34024 1.19992,0.70728 0.98654,3.46202 1.55113,3.31314 0.56461,-0.13652 -0.35121,-2.18395 0.98902,-1.76203 1.34261,0.42189 3.59855,2.04743 3.67175,1.70003 0.1961,-0.99272 -3.10715,-2.46944 -3.74255,-3.04026 -0.63412,-0.5584 2.04873,-1.2036 1.48162,-1.6876 -0.56212,-0.49632 -1.90603,0.70729 -3.31564,0.63289 -1.41342,-0.07449 -2.61334,-1.41461 -3.31816,-1.83652 z"
                 style="fill:#000000;fill-opacity:1;fill-rule:nonzero;stroke:#000000;stroke-width:0.3985;stroke-linecap:butt;stroke-linejoin:miter;stroke-miterlimit:10;stroke-dasharray:none;stroke-opacity:1"
                 id="path26" /><path
                 d="m 256.21878,23.68759 c -0.5658,-0.1365 -3.81325,-1.55112 -6.77778,-1.05481 -2.05242,0.34749 -3.51174,0.88111 -4.22645,1.17891 -0.78801,4.44235 -2.15924,8.21471 -3.39764,8.21471 -1.26941,0 -0.91821,-2.82924 -1.76453,-2.04743 -0.77562,3.23874 -1.48291,8.041 -2.96455,8.252 -1.4828,0.21093 -1.5536,-1.68762 -1.41211,-2.75483 0.1402,-1.05481 -1.12921,-1.47672 -1.48162,0.78181 -0.3537,2.25842 -2.11822,5.64609 -3.74134,5.64609 -1.62431,0 0.4939,-2.68034 -0.77551,-3.10227 -1.27323,-0.42189 -0.98902,3.88396 -2.61344,3.73506 -1.62303,-0.1365 -0.28291,-1.68763 -1.27192,-2.18391 -0.9865,-0.49642 -2.04493,3.38763 -3.38764,1.6255 -1.34141,-1.76202 4.51936,-3.59854 4.73036,-4.72776 0.21091,-1.1292 -2.54263,0 -2.75352,-1.20372 -0.14032,-3.74754 5.93146,-3.38762 6.35206,-4.30594 0.42441,-0.91822 -3.38763,-0.2854 -2.82302,-2.54384 0.5646,-2.25842 7.27049,-2.33283 7.27049,-2.33283 0,0 -2.39874,-0.91832 -1.90483,-2.46942 0.4951,-1.55111 3.74006,-1.05484 7.48271,-0.91831 3.74124,0.14889 5.36555,-0.98032 5.36555,-0.98032 l -0.0881,0.09932 c 0.613,-0.24822 1.27811,-0.47153 1.99291,-0.67012 -3.17793,-0.63282 -6.21196,-1.26572 -7.05827,-1.34014 -0.3536,0.57082 -0.56702,1.41461 -2.04743,1.34014 -0.8463,-0.0372 -1.52511,-0.47152 -1.95573,-0.83142 -1.21231,0.01249 -3.33545,0.0249 -7.0793,0.0621 -6.94908,0.0496 -11.58254,1.86131 -13.16097,2.59343 0.37351,1.50151 -0.8724,5.37318 -1.3811,5.31106 -0.56461,-0.0744 -1.83534,-2.89123 -1.97553,-1.34011 -0.35371,4.36796 -3.03654,5.70808 -3.67186,5.78257 -0.63531,0.0744 -0.28289,-1.76211 -1.05851,-2.18403 -0.7755,-0.42189 -1.55362,2.75483 -2.68283,4.30598 -1.13042,1.55112 -3.24863,1.26572 -2.82424,-0.21092 0.42441,-1.48911 -0.9158,-1.41472 -2.04503,0.84381 -1.12921,2.25842 -4.23645,2.33282 -3.81205,-0.13649 0.42321,-2.48183 3.17674,-1.98553 3.66935,-3.17674 0.49393,-1.20372 -3.24614,0.06199 -2.04622,-2.75484 1.19991,-2.82922 5.08275,-1.20363 5.71807,-2.54382 0.63411,-1.34014 -3.17792,-0.57083 -2.75352,-1.34014 1.4096,-4.16945 8.11918,-1.91101 8.3301,-2.61833 0.2097,-0.69491 -1.13043,-0.98031 -1.13043,-1.89863 0,-0.8438 5.59888,0.38472 7.15009,1.30304 3.69166,-2.22124 9.73604,-2.94095 14.80392,-3.13956 -0.18982,-0.5708 -4.91278,-1.5883 -8.07083,-2.22122 -1.49532,0.55839 -2.96202,0.71981 -3.43735,0.17379 -0.98769,-1.12921 2.44833,-2.30811 1.34393,-2.61833 -0.6477,-0.1737 -2.42223,0.86862 -4.17686,1.35262 -0.7321,0.4343 -1.54123,0.76932 -2.05992,0.55841 -1.12921,-0.47161 -3.48315,-2.73004 -10.25972,-3.01544 -6.5607,-0.273 -12.42017,2.54383 -19.62116,6.83738 -0.2519,0.78171 -0.67871,2.05992 -1.30172,3.77235 -1.08081,2.95333 -0.5038,6.76289 4.17315,11.29214 0.93323,0.71972 2.44582,1.30304 1.94202,2.23364 -0.5038,0.93071 1.43942,1.07962 0.86493,2.30814 -0.57703,1.216 1.43701,2.22122 0.79291,3.01533 -0.65023,0.79422 -4.24637,1.22852 -4.24637,-0.1365 0,-1.37742 1.65542,-2.30803 1.07843,-2.95335 -0.57702,-0.6452 0.21589,-1.07961 -0.2879,-2.15911 -0.50263,-1.07964 -1.94454,-2.23363 -4.24387,-5.39798 -2.30563,-3.16425 -2.44833,-6.19209 -1.65541,-8.1279 0.4579,-1.12923 0.52609,-1.94823 0.5063,-2.45694 -6.5222,3.74754 -10.49184,5.18698 -13.01207,10.22503 -1.31912,3.20154 -1.79191,4.23147 -2.91864,3.67304 -1.12921,-0.5708 1.97554,-5.74538 4.23397,-7.53229 0,0 -4.89287,0.09932 -8.18741,1.60083 -3.29335,1.50142 -2.72875,2.81684 -4.61127,2.81684 -1.88364,0 -3.95345,0.01238 -4.89404,0.47151 -0.41703,0.211 -1.01514,0.608 -1.55484,0.98031 0.4504,2.12192 0.5112,4.39275 -1.64672,5.28626 -1.76452,0.9182 -3.81206,0.3474 -3.81206,0.3474 0,0 -0.84629,1.0672 -4.30716,0.49641 -3.45593,-0.55841 -2.53894,-2.25844 -0.7023,-4.09495 1.83403,-1.83663 3.17545,-1.41472 3.17545,-1.41472 0,0 0.8475,-3.38764 2.82303,-3.52414 1.67392,-0.1241 3.48445,1.11682 4.09125,1.84901 0.64401,-0.3475 2.08592,-1.11682 2.59344,-1.32782 0.6254,-0.27299 1.68393,0.211 3.08243,-0.38469 -0.0335,-0.2481 0.0434,-0.60801 0.39711,-1.12922 -3.88284,-0.76931 -10.37523,-2.81682 -15.1738,-3.88395 -4.80095,-1.05482 -10.94345,-3.38773 -11.57753,-3.23884 -0.63544,0.13651 -1.90733,0.13651 -3.74257,0.55841 -0.68379,0.1614 -1.26951,0.2855 -1.73731,0.38469 -0.30032,0.81903 -1.39103,2.03514 -2.40234,2.32054 -1.31781,0.3847 -2.72874,4.42995 -3.86046,4.04535 -1.1292,-0.37232 -1.31909,-1.21611 -1.31909,-1.21611 0,0 -2.63444,3.20153 -3.76365,3.00294 -1.12923,-0.18611 0,-1.50143 -1.31783,-1.50143 -1.31662,0 -3.20024,2.72995 -4.42373,1.50143 -1.22364,-1.21603 1.4133,-3.18904 3.38882,-3.28834 1.97671,-0.09932 -1.03492,-1.22852 -1.97552,-1.22852 -0.94312,0 0.37599,-2.53143 5.27136,-1.97304 1.88372,-0.18609 -0.65891,-1.97302 0.7507,-2.72991 1.41342,-0.74462 3.76495,-0.18622 4.14216,-0.3723 0.3785,-0.18613 -0.0943,-1.31534 1.50522,-1.31534 1.41094,0 3.10974,1.01752 3.81455,1.83653 1.13171,-0.211 2.37503,-0.57082 1.92712,-1.01761 -0.7756,-0.78171 -7.97648,-2.96574 -8.3997,-2.04744 -0.42441,0.91822 -1.76451,0.42192 -3.45835,1.55113 -1.69511,1.1292 -1.97801,2.25844 -4.65835,2.25844 -2.68404,0 -11.57764,2.19643 -17.86035,6.42787 -1.83522,0.63282 -2.39981,-1.83653 0.07081,-2.96572 2.47183,-1.12923 4.09247,-1.26572 3.45835,-2.18404 -0.6353,-0.91822 -9.24842,-2.40735 -16.23592,-1.20362 -1.48161,-0.3475 -0.4926,-2.46945 4.16565,-2.54392 4.65837,-0.07441 11.43497,0.5708 15.1068,2.75482 2.61085,-0.42191 7.19839,-1.8365 9.67035,-1.8365 2.46931,0 2.75352,-0.21102 4.30465,-1.12925 1.55361,-0.9183 2.96572,-1.34019 2.82302,-1.6876 -0.14019,-0.35991 -3.52913,-1.98543 -7.90329,-4.09496 -4.37667,-2.12193 -8.26192,-3.25123 -7.90821,-4.30595 0.35359,-1.06722 2.04743,-0.35991 6.28137,2.10951 4.23768,2.46945 10.80206,5.16219 11.71906,5.58408 0.9183,0.42192 2.75233,0 10.73135,2.46933 5.43385,1.47671 7.90329,2.39494 7.19849,1.05484 -0.70482,-1.34024 -6.5656,-6.1425 -5.08278,-7.19722 0.84631,-0.4964 3.45845,3.10225 6.14249,6.14238 1.69381,1.83653 4.80107,3.10235 9.17521,4.30598 4.37668,1.20369 9.17772,3.38762 11.78855,3.31323 0.51132,0.54599 1.20244,0.80651 1.77942,0.94301 2.33543,-1.25322 5.76278,-2.80444 9.44452,-2.99052 1.58714,-0.18613 5.06788,-2.09716 8.27182,-3.94606 -2.66413,0.0372 -6.60399,-1.42704 -8.7706,-2.33295 -5.92908,3.57385 -7.26671,1.31543 -5.9477,0.58331 1.36373,-0.7446 0.79912,-1.45192 -1.08329,-0.70739 -1.88123,0.75698 -5.03428,1.27821 -5.64488,0.28549 -0.61301,-0.98032 2.06982,-1.87381 1.92962,-2.20883 -0.1414,-0.3351 -1.17882,-0.13649 -4.66087,-0.09931 -1.91223,0.02481 -3.47823,-0.9555 -3.71764,-1.87372 -0.1973,-0.75702 0.78922,-1.42701 0.70482,-1.74972 -0.0894,-0.33499 -1.78812,-0.29781 -3.34055,-0.89342 -1.69381,-0.6329 -3.22265,-1.92342 -2.68283,-3.00302 1.03492,-2.07224 5.60146,1.36502 5.97747,0.89349 0.37721,-0.47159 -0.37601,-2.12192 1.12921,-2.45701 1.78814,-0.55842 5.74157,4.38044 6.30618,3.90883 0.56471,-0.4715 -0.80031,-3.05263 1.17522,-3.05263 2.40233,0.0497 4.04776,6.1673 4.80096,6.30378 0.75452,0.13651 0.28421,-1.73722 1.78941,-1.60072 1.68883,0.17371 3.00795,3.06505 3.56756,4.50446 6.07547,2.91614 9.83293,2.33293 11.27734,1.87372 0.66392,-0.3722 1.28432,-0.73212 1.81543,-1.01752 3.48195,-1.8737 7.5273,-4.70296 16.56232,-7.43297 0.5646,-0.37222 -1.40961,-1.31534 -13.83359,-4.61618 -12.42635,-3.28833 -16.75461,-4.33075 -17.60092,-6.20447 -0.84751,-1.88612 0.75201,-2.35774 1.41093,-1.78694 0.65889,0.55842 -0.84881,1.78694 4.04782,3.47456 4.89537,1.70002 18.35416,5.08766 19.48339,5.64608 -1.03493,-1.78684 -3.24245,-3.41246 -3.67186,-6.30379 -0.37601,-2.54383 1.1876,-1.58832 1.41342,-0.08679 0.28288,1.87372 2.16412,5.17457 5.55176,6.77528 3.38894,1.60072 7.8115,1.50151 10.16543,2.25842 2.16412,0.69492 5.89557,1.60083 7.94922,1.31542 0.6714,-0.89351 1.68892,-1.61322 1.01509,-2.12203 -1.1999,-0.89341 -5.57655,1.1292 -7.76311,-0.21089 -4.02543,-3.02784 1.81053,-3.02784 1.34024,-3.94606 -0.47032,-0.9183 -5.71687,-2.25844 -4.87177,-4.09495 1.62432,-2.96584 5.93147,0.84381 5.93147,0.84381 0,0 0.14021,-1.68761 1.26943,-1.91103 3.38895,-0.48399 4.72904,4.56656 5.71807,4.09496 0.98901,-0.47151 -0.8488,-2.68035 0.9183,-2.60582 2.60953,0.21087 3.55265,6.09275 5.01198,5.85696 1.45931,-0.2357 0.0707,-2.18393 0.9865,-1.97304 2.21753,0.95553 3.94606,4.18187 3.96715,6.2294 0.80293,0.93061 2.93225,2.82923 8.03482,4.85184 1.36631,0.54604 1.99911,0.27303 2.29443,-0.01239 -0.71222,-0.5708 -1.76573,-1.6504 -2.01393,-3.30073 -0.26192,-1.77454 0.6353,-2.97826 1.2074,-3.56145 -0.819,-0.88101 -1.37621,-2.05982 -1.44202,-3.41244 -0.14018,-2.91614 2.58853,-4.98847 3.01297,-4.33076 0,0 0.30278,0.3599 0.76559,0.89342 1.30921,-0.88103 6.09288,-3.89636 7.75071,-2.02263 1.71863,1.94821 -1.91222,6.14247 -3.27965,7.2965 0.11911,0.13649 0.21591,0.26059 0.26921,0.33499 0.5646,0.74461 -0.89472,2.68045 -3.43605,2.81683 -1.05231,0.06212 -2.06981,-0.2978 -2.92604,-0.9306 -0.3611,0.2606 -1.26691,1.12923 -0.88471,3.15184 0.366,1.93582 2.51903,2.92854 3.46083,3.27605 0.41942,0.1241 0.79792,0.23568 1.00882,0.29779 0.70482,0.2109 2.82305,0.91821 8.82413,1.40222 5.99847,0.4963 7.20088,0.43431 7.41188,1.12922 0.21343,0.70731 -0.14029,1.98542 -0.70491,1.83652 z m -26.05023,11.51555 c -0.42191,-0.14891 -2.82303,0.5584 -2.46933,1.05481 0.35361,0.49631 0,0 0.63531,0.1365 0.6353,0.1489 0,0 -0.21092,0.99273 -0.21348,0.9927 -0.21348,1.97302 0.42192,0.78169 0.63411,-1.20361 2.40363,-2.70512 1.62302,-2.96573 z m 1.83783,-1.70003 c -1.55362,0.34741 -1.55362,1.20372 -0.77802,1.20372 0.77802,0 1.34511,-1.3278 0.77802,-1.20372 z m 7.27038,-6.84977 c -0.63531,-0.062 -2.26091,1.77452 -3.88273,2.19642 -1.62314,0.42191 -3.10724,0.55841 -3.10724,0.9803 0,0.42191 0.7061,0.21091 1.83531,0.35982 1.13171,0.13649 -1.27072,1.40221 -0.7048,1.62561 0.5646,0.21091 2.11693,-1.12921 2.75233,-1.56352 0.6353,-0.42191 -0.1403,1.56352 0.4243,1.77443 0.56462,0.211 0.63541,-0.5708 0.77562,-2.25844 0.1402,-1.70003 2.92723,-2.99054 1.90721,-3.11462 z m -24.94081,-2.68035 c -0.56711,-0.65771 -2.07232,0.57081 -3.10725,1.41463 -1.0349,0.84379 -2.54262,1.68761 -3.19904,2.25844 -0.66011,0.55839 -4.70677,3.20154 -4.33194,3.57382 0.376,0.37221 0.7544,-0.2854 1.59952,-0.65772 0.8488,-0.37228 0.18979,1.22854 0.6601,0.47152 0.47032,-0.75692 1.22361,-1.70003 4.33075,-3.67302 3.10475,-1.97304 1.50523,-0.84384 1.50523,0.09927 0,0.94312 0.75081,-0.65771 1.69382,-1.70001 0.94062,-1.03002 1.42462,-1.11681 0.84881,-1.78693 z M 161.13107,16.9867 c -0.84501,-0.91822 -1.40962,-2.04741 -1.40962,-1.34012 0,0.70732 0.84749,1.26572 0,1.12922 -0.84633,-0.1365 -1.55363,-0.1365 -2.39993,-0.9183 -0.84752,-0.78172 -2.32913,-2.89125 -2.11824,-1.76203 0.21101,1.12922 1.12922,1.05471 0.21101,1.12922 -0.9158,0.06199 -2.25842,-0.70733 -1.90481,0.06199 0,0 1.6231,0.91832 2.39862,1.27812 0.77931,0.3475 -2.60953,0.91831 -1.97423,1.26572 0.63411,0.35989 3.24745,-0.70731 4.23395,-0.4219 0.98901,0.2854 1.48283,0.21099 1.05851,0.6329 -0.4232,0.4219 -1.12921,1.62552 -0.0695,1.06712 1.05841,-0.57083 2.68285,-0.9927 3.45834,-0.4963 0.77563,0.4963 2.68285,1.47659 2.61214,0.98031 -0.0695,-0.48401 -3.24744,-1.68764 -4.09624,-2.60595 z M 213.51073,6.67488 c -0.9182,-1.12924 -1.55231,-2.39494 -1.55231,-1.55112 0,0.85621 1.26941,2.33281 0.42311,1.91092 -0.84753,-0.4219 -3.53036,-2.04744 -3.67186,-1.70002 -0.15759,0.39711 2.75354,2.54384 3.95357,3.38763 1.20239,0.85621 1.76452,-0.91821 0.84749,-2.04741 z m 10.23623,6.42778 c -0.77681,-0.13641 -1.34271,-0.63283 -2.54261,-1.34012 -1.19992,-0.70732 -0.98903,-3.46216 -1.55112,-3.31324 -0.56462,0.1365 0.3512,2.18402 -0.98901,1.76213 -1.34262,-0.42193 -3.59986,-2.04753 -3.67188,-1.70003 -0.196,0.9927 3.10726,2.48172 3.74136,3.04013 0.6353,0.55842 -2.04753,1.20372 -1.4804,1.70012 0.5621,0.4839 1.90481,-0.70741 3.31573,-0.6453 1.41332,0.07441 2.61205,1.41462 3.31813,1.83652 0.70482,0.42191 0.63532,-1.19122 -0.1402,-1.34021 z m 2.47686,2.58112 c -0.55102,0.63281 -1.40354,1.20364 -2.32926,1.65043 0.72722,0.1489 1.53133,0.273 2.39124,0.35981 1.91723,0.17368 3.12704,-0.12412 3.76245,-0.37222 -1.68512,-0.8066 -3.19284,-1.48911 -3.82443,-1.63802 z"
                 style="fill:#000000;fill-opacity:1;fill-rule:nonzero;stroke:#000000;stroke-width:0.3985;stroke-linecap:butt;stroke-linejoin:miter;stroke-miterlimit:10;stroke-dasharray:none;stroke-opacity:1"
                 id="path28" /></g></g></g></g></g></g></svg>
